<?xml version="1.0" encoding="utf-8"?>
<!-- Generator: Adobe Illustrator 17.0.0, SVG Export Plug-In . SVG Version: 6.00 Build 0)  -->
<!DOCTYPE svg PUBLIC "-//W3C//DTD SVG 1.1//EN" "http://www.w3.org/Graphics/SVG/1.1/DTD/svg11.dtd">
<svg version="1.1" id="Layer_1" xmlns="http://www.w3.org/2000/svg" xmlns:xlink="http://www.w3.org/1999/xlink" x="0px" y="0px"
	 width="17px" height="17px" viewBox="0 0 992.13 945.383" enable-background="new 0 0 992.13 945.383"
	 xml:space="preserve">
<path fill="#EF8025" d="M495.844,0.165c7.739-0.957,14.046,2.317,18.812,7.944c3.975,4.694,7.522,9.956,10.256,15.464
	c43.749,88.155,87.396,176.36,130.81,264.679c2.617,5.323,5.912,7.365,11.415,8.155c69.738,10.02,139.453,20.197,209.173,30.347
	c28.152,4.098,56.33,8.032,84.425,12.49c6.248,0.991,12.579,3.135,18.203,6.042c12.049,6.228,16.571,18.336,10.513,30.486
	c-3.874,7.769-9.528,15.062-15.746,21.184c-49.781,49.012-99.885,97.695-149.893,146.476
	c-19.908,19.419-39.771,38.884-59.799,58.179c-2.862,2.757-3.799,5.241-3.098,9.264c10.635,61.076,21.076,122.186,31.576,183.286
	c6.285,36.573,12.823,73.105,18.691,109.744c1.132,7.071,0.674,14.763-0.785,21.809c-3.151,15.219-14.692,22.286-29.889,18.791
	c-5.767-1.326-11.483-3.572-16.737-6.324c-87.186-45.683-174.317-91.473-261.363-137.423c-4.675-2.468-8.086-2.469-12.765,0.001
	c-85.87,45.32-171.839,90.454-257.811,135.579c-4.511,2.368-9.102,4.72-13.895,6.392c-23.697,8.265-41.205-5.358-38.025-30.316
	c2.779-21.805,6.855-43.451,10.568-65.131c12.603-73.59,24.73-147.27,38.407-220.661c2.981-15.997-0.779-25.543-12.282-36.525
	C150.31,526.8,84.845,462.633,19.289,398.567c-5.809-5.677-11.154-12.242-15.146-19.283c-8.553-15.088-3.645-30.02,12.751-35.668
	c12.666-4.364,26.292-6.275,39.641-8.269c60.228-8.998,120.509-17.649,180.774-26.402c29.033-4.216,58.055-8.52,87.128-12.449
	c5.823-0.787,9.258-2.849,11.983-8.395c43.206-87.928,86.623-175.752,130.195-263.499c3.117-6.278,7.341-12.171,11.898-17.521
	C482.811,2.033,488.78-0.662,495.844,0.165z"/>
</svg>

